<svg xmlns="http://www.w3.org/2000/svg" viewBox="0 0 207.91 74.15"><defs><style>.cls-1{font-size:35.26px;font-family:AkzidenzGroteskBE-Bold, Berthold Akzidenz Grotesk;font-weight:700;}.cls-1,.cls-5{fill:#231f20;}.cls-2{letter-spacing:-0.02em;}.cls-3{letter-spacing:0.08em;}.cls-4{letter-spacing:-0.04em;}.cls-6{fill:none;stroke:#fff;stroke-miterlimit:10;stroke-width:4px;}.cls-7{fill:#fff;}</style></defs><title>Asset 3</title><g id="Layer_2" data-name="Layer 2"><g id="Layer_1-2" data-name="Layer 1"><text class="cls-1" transform="translate(74.25 30.08)">Li<tspan class="cls-2" x="29.41" y="0">k</tspan><tspan x="49.26" y="0">e </tspan><tspan class="cls-3" x="0" y="35.26">A</tspan><tspan class="cls-4" x="27.89" y="35.26">V</tspan><tspan x="49.96" y="35.26">egan</tspan></text><rect class="cls-5" y="5.11" width="65.72" height="60.22"/><path class="cls-6" d="M42.22,24.27c-6.19,13-2.39,5-5.34,11.2L32.3,45.06a.74.74,0,0,1-1.33,0l-4.58-9.59c-2.95-6.19.84,1.77-5.35-11.2A12.41,12.41,0,0,0,31.63,46.71,12.41,12.41,0,0,0,42.22,24.27Z"/><path class="cls-7" d="M60.94,45.19a4.91,4.91,0,0,1-9-3.87Z"/><path class="cls-7" d="M57.32,35.4a2.9,2.9,0,1,1-4.68,3.44Z"/></g></g></svg>